<svg xmlns="http://www.w3.org/2000/svg" width="29.577" height="28.828" viewBox="0 0 29.577 28.828">
  <path id="FontAwsome_arrow-left_" data-name="FontAwsome (arrow-left)" d="M16.952,64.547l-1.465,1.465a1.578,1.578,0,0,1-2.238,0L.415,53.186a1.578,1.578,0,0,1,0-2.238L13.248,38.115a1.578,1.578,0,0,1,2.238,0l1.465,1.465a1.586,1.586,0,0,1-.026,2.264L8.971,49.423H27.943a1.58,1.58,0,0,1,1.584,1.584V53.12A1.581,1.581,0,0,1,27.943,54.7H8.971l7.955,7.578A1.575,1.575,0,0,1,16.952,64.547Z" transform="translate(0.05 -37.65)" fill="#eee"/>
</svg>
