<svg xmlns="http://www.w3.org/2000/svg" width="32.176" height="28.154" viewBox="0 0 32.176 28.154"><path d="M1.149,65.171H31.027a1.149,1.149,0,0,0,1.149-1.149V61.149A1.149,1.149,0,0,0,31.027,60H1.149A1.149,1.149,0,0,0,0,61.149v2.873A1.149,1.149,0,0,0,1.149,65.171Zm0,11.491H31.027a1.149,1.149,0,0,0,1.149-1.149V72.641a1.149,1.149,0,0,0-1.149-1.149H1.149A1.149,1.149,0,0,0,0,72.641v2.873A1.149,1.149,0,0,0,1.149,76.663Zm0,11.491H31.027A1.149,1.149,0,0,0,32.176,87V84.132a1.149,1.149,0,0,0-1.149-1.149H1.149A1.149,1.149,0,0,0,0,84.132V87A1.149,1.149,0,0,0,1.149,88.154Z" transform="translate(0 -60)" fill="#e8e8e8"/></svg>