<svg xmlns="http://www.w3.org/2000/svg" width="28.656" height="28.656" viewBox="0 0 28.656 28.656">
  <path id="FontAwsome_times-circle_" data-name="FontAwsome (times-circle)" d="M22.328,8A14.328,14.328,0,1,0,36.656,22.328,14.325,14.325,0,0,0,22.328,8Zm0,25.883A11.555,11.555,0,1,1,33.883,22.328,11.552,11.552,0,0,1,22.328,33.883Zm5.881-15.148-3.594,3.594,3.594,3.594a.694.694,0,0,1,0,.982L26.9,28.209a.694.694,0,0,1-.982,0l-3.594-3.594-3.594,3.594a.694.694,0,0,1-.982,0L16.447,26.9a.694.694,0,0,1,0-.982l3.594-3.594-3.594-3.594a.694.694,0,0,1,0-.982l1.306-1.306a.694.694,0,0,1,.982,0l3.594,3.594,3.594-3.594a.694.694,0,0,1,.982,0l1.306,1.306a.694.694,0,0,1,0,.982Z" transform="translate(-8 -8)" fill="#f1efef"/>
</svg>
