<svg xmlns="http://www.w3.org/2000/svg" width="20.118" height="20.118" viewBox="0 0 20.118 20.118">
  <path id="FontAwsome_facebook-square_" data-name="FontAwsome (facebook-square)" d="M17.962,32H2.155A2.155,2.155,0,0,0,0,34.155V49.962a2.155,2.155,0,0,0,2.155,2.155H8.319v-6.84H5.49V42.059H8.319V39.605c0-2.791,1.661-4.332,4.206-4.332a17.139,17.139,0,0,1,2.493.217v2.739h-1.4A1.61,1.61,0,0,0,11.8,39.968v2.09h3.089l-.494,3.219H11.8v6.84h6.163a2.155,2.155,0,0,0,2.155-2.155V34.155A2.155,2.155,0,0,0,17.962,32Z" transform="translate(0 -32)" fill="#ddefe4"/>
</svg>
