<svg xmlns="http://www.w3.org/2000/svg" width="20.122" height="20.118" viewBox="0 0 20.122 20.118">
  <path id="FontAwsome_instagram_" data-name="FontAwsome (instagram)" d="M9.988,36.726a5.158,5.158,0,1,0,5.158,5.158A5.15,5.15,0,0,0,9.988,36.726Zm0,8.511a3.353,3.353,0,1,1,3.353-3.353,3.359,3.359,0,0,1-3.353,3.353Zm6.572-8.722a1.2,1.2,0,1,1-1.2-1.2A1.2,1.2,0,0,1,16.56,36.515Zm3.416,1.221a5.954,5.954,0,0,0-1.625-4.215A5.993,5.993,0,0,0,14.136,31.9c-1.661-.094-6.639-.094-8.3,0a5.984,5.984,0,0,0-4.215,1.621A5.973,5.973,0,0,0,0,37.731c-.094,1.661-.094,6.639,0,8.3a5.954,5.954,0,0,0,1.625,4.215,6,6,0,0,0,4.215,1.625c1.661.094,6.639.094,8.3,0a5.954,5.954,0,0,0,4.215-1.625,5.993,5.993,0,0,0,1.625-4.215c.094-1.661.094-6.635,0-8.3ZM17.831,47.814a3.4,3.4,0,0,1-1.912,1.912c-1.324.525-4.467.4-5.93.4s-4.61.117-5.93-.4a3.4,3.4,0,0,1-1.912-1.912c-.525-1.324-.4-4.467-.4-5.93s-.117-4.61.4-5.93a3.4,3.4,0,0,1,1.912-1.912c1.324-.525,4.467-.4,5.93-.4s4.61-.117,5.93.4a3.4,3.4,0,0,1,1.912,1.912c.525,1.324.4,4.467.4,5.93S18.356,46.494,17.831,47.814Z" transform="translate(0.075 -31.825)" fill="#ddefe4"/>
</svg>
