<svg xmlns="http://www.w3.org/2000/svg" width="20.118" height="20.118" viewBox="0 0 20.118 20.118">
  <path id="FontAwsome_linkedin_" data-name="FontAwsome (linkedin)" d="M18.681,32H1.432A1.443,1.443,0,0,0,0,33.45V50.667a1.443,1.443,0,0,0,1.432,1.45H18.681a1.447,1.447,0,0,0,1.437-1.45V33.45A1.447,1.447,0,0,0,18.681,32ZM6.08,49.244H3.1v-9.6H6.085v9.6ZM4.589,38.332A1.729,1.729,0,1,1,6.318,36.6,1.73,1.73,0,0,1,4.589,38.332ZM17.257,49.244H14.275v-4.67c0-1.114-.022-2.546-1.549-2.546-1.554,0-1.792,1.212-1.792,2.465v4.751H7.953v-9.6h2.86v1.311h.04A3.141,3.141,0,0,1,13.678,39.4c3.018,0,3.579,1.989,3.579,4.576Z" transform="translate(0 -32)" fill="#ddefe4"/>
</svg>
