<svg xmlns="http://www.w3.org/2000/svg" xmlns:xlink="http://www.w3.org/1999/xlink" width="200.113" height="92" viewBox="0 0 220.113 92"><defs><filter id="a" x="42.113" y="0" width="178" height="92" filterUnits="userSpaceOnUse"><feOffset dy="3" input="SourceAlpha"/><feGaussianBlur stdDeviation="3" result="b"/><feFlood flood-opacity="0.161"/><feComposite operator="in" in2="b"/><feComposite in="SourceGraphic"/></filter></defs><g transform="translate(-89.887 -24)"><g transform="matrix(1, 0, 0, 1, 89.89, 24)" filter="url(#a)"><text transform="translate(51.11 60)" fill="#e6f2ee" font-size="57" font-family="BebasNeue-Regular, Bebas Neue"><tspan x="0" y="0">TMS Eng.</tspan></text></g><g transform="translate(89.887 44.239)"><path d="M20.582-299.213l-.136.8-.634.045c-.634.045-.649.03-.981-.651s-.347-.7-.906-.605a15.142,15.142,0,0,0-1.509.393,7.806,7.806,0,0,1-1.238.287c-.241,0-.272.106-.211.893.06.878.06.893-.453,1.165l-.513.272-.558-.651-.574-.666-1.192.666c-.649.363-1.389.757-1.615.878q-.43.227-.317.454c.045.136.181.53.287.893.2.62.2.635-.257.968-.5.348-.423.363-1.66-.393-.211-.136-.483.045-1.524,1.044a11.217,11.217,0,0,0-1.3,1.347,3.022,3.022,0,0,0,.438.7c.543.681.528.666.151,1.21l-.3.424-.755-.227a2.6,2.6,0,0,0-.966-.151,14.583,14.583,0,0,0-1.69,2.723c-.06.182.075.424.528.832.619.56.619.56.438,1.135l-.181.59L2-284.945c-.86-.091-.951-.076-.951.182a8.2,8.2,0,0,1-.287,1.226,14.539,14.539,0,0,0-.392,1.543c-.091.575-.091.59.634.938.709.348.724.363.679.983-.045.605-.075.651-.6.741-1.162.182-1.087.045-1.087,2.028s-.015,1.967,1.147,1.967c.468,0,.483.03.543.7l.045.681-.709.333c-.408.182-.724.424-.724.53a16.449,16.449,0,0,0,.423,1.8l.408,1.589L2-269.8l.875-.091.226.545.226.56-.619.635-.634.651.86,1.528c.468.847.875,1.528.891,1.528s.408-.106.845-.242l.815-.242.347.409c.438.5.438.514-.03,1.2a2.083,2.083,0,0,0-.362.741,9.029,9.029,0,0,0,1.283,1.377l1.253,1.2.634-.484c.574-.409.679-.439.951-.272a4.376,4.376,0,0,0,.5.3c.136.091.136.287-.03.832-.317,1.044-.287,1.15.423,1.513.347.182,1.026.545,1.524.817l.875.484.558-.651.558-.651.543.272.558.257-.091.847-.075.847,1.555.439c.86.227,1.675.454,1.811.484.166.045.347-.166.589-.7.362-.787.423-.817,1.192-.666.392.076.468.182.558.651.181,1.15.045,1.074,2.023,1.074s1.962.015,1.962-1.15c0-.409.06-.484.468-.575.785-.151.845-.121,1.283.62.226.409.423.741.438.772a9.85,9.85,0,0,0,1.3-.333c.694-.2,1.464-.409,1.706-.454.438-.106.438-.106.347-1l-.091-.878.558-.227.558-.227.634.605c.332.333.679.59.755.56.136-.06,2.807-1.528,2.883-1.589a3.578,3.578,0,0,0-.181-.832c-.3-1.029-.317-.968.211-1.347l.438-.318.724.454.724.454,1.223-1.165a8.884,8.884,0,0,0,1.253-1.331,2.906,2.906,0,0,0-.453-.787l-.468-.635.332-.454c.377-.53.317-.514,1.283-.227.906.272.845.318,1.826-1.558l.74-1.407-.649-.56-.664-.575.272-.545.257-.56.875.091c.86.091.875.091.981-.348.045-.242.257-1.014.453-1.71s.362-1.286.362-1.316a4.33,4.33,0,0,0-.77-.439l-.77-.393.106-.635a5.327,5.327,0,0,1,.136-.651s.362-.076.77-.151l.755-.136.045-1.831.045-1.831-.785-.091a5.15,5.15,0,0,1-.83-.151,2.57,2.57,0,0,1-.136-.635c-.106-.605-.106-.605.664-.983.5-.242.74-.454.709-.605-.03-.121-.257-.923-.483-1.785l-.423-1.558-.845.106-.83.091-.287-.575-.272-.575.619-.59a3.668,3.668,0,0,0,.619-.651c0-.045-.362-.726-.785-1.513-.5-.862-.891-1.422-1.041-1.422a4.557,4.557,0,0,0-.936.212c-.679.212-.694.2-.951-.182-.347-.53-.332-.605.151-1.362l.408-.651-1.268-1.286-1.253-1.3-.709.484c-.694.469-.74.469-1.1.227-.513-.333-.558-.5-.287-1.362a1.624,1.624,0,0,0,.106-.847c-.06-.045-.77-.454-1.585-.878l-1.479-.8-.332.424c-.181.227-.408.53-.5.651-.151.2-.242.2-.755,0l-.589-.227.06-.938c.03-.772,0-.938-.2-.938a11.177,11.177,0,0,1-1.54-.378c-1.751-.514-1.8-.5-2.128.3-.272.666-.287.681-.966.681h-.709l-.106-.832L24.431-300H20.718Zm3.185.545a3.123,3.123,0,0,0,.211.772,7.425,7.425,0,0,0,2.37.62c.091,0,.317-.333.483-.757l.3-.741,1.041.288c.558.166,1.041.3,1.057.3a6.571,6.571,0,0,1-.06.8l-.075.8,1.177.5,1.177.5.558-.59.558-.605.574.3c1.283.635,1.283.635,1.041,1.332a4.129,4.129,0,0,0-.226.878,6.468,6.468,0,0,0,1.857,1.5,1.692,1.692,0,0,0,.709-.333,4.607,4.607,0,0,1,.679-.393,5.973,5.973,0,0,1,.83.7l.724.681-.453.741-.453.741.5.651c1.041,1.362,1,1.332,1.675,1.089a3.851,3.851,0,0,1,.785-.212c.106,0,.392.393.664.862l.5.847-.589.62c-.483.5-.574.681-.468.923.06.166.272.666.453,1.12l.332.8.86-.061.86-.06.181.832c.106.469.226.923.257,1.029.045.106-.242.348-.694.575-.724.363-.755.408-.679.878.045.272.136.817.2,1.241l.106.757.83.166c.709.136.83.2.815.484,0,.182-.015.666-.03,1.059l-.03.726-.755.2c-.408.106-.755.212-.755.212-.091.424-.423,2.451-.408,2.451.015.015.362.182.77.363.619.288.709.378.634.666-.06.182-.181.666-.287,1.059l-.181.726-.8-.106-.785-.091-.377.847c-.649,1.468-.649,1.574,0,2.133l.574.469-.5.938a3.442,3.442,0,0,1-.619.938,3.442,3.442,0,0,1-.724-.242,1.791,1.791,0,0,0-.74-.182,11.165,11.165,0,0,0-1.54,1.876,4.2,4.2,0,0,0,.438.726l.453.651-.709.7a3.334,3.334,0,0,1-.875.711,2.706,2.706,0,0,1-.709-.378c-.347-.242-.634-.348-.755-.272a6.751,6.751,0,0,0-1.766,1.513,3.152,3.152,0,0,0,.226.757c.121.287.226.56.226.575a5.911,5.911,0,0,1-.86.59l-.86.545-.619-.605-.619-.605-1.177.484-1.177.5.06.8.045.817-.906.287c-.5.151-.951.287-1,.287a2.921,2.921,0,0,1-.438-.772c-.3-.62-.423-.741-.664-.681-.181.03-.589.106-.921.166-1.3.2-1.253.166-1.449,1.074l-.2.847-.664-.091c-.377-.045-.86-.091-1.087-.091-.377,0-.423-.061-.513-.666A1.751,1.751,0,0,0,21.08-257a3.719,3.719,0,0,0-1.072-.257,8.4,8.4,0,0,1-1.1-.182c-.136-.045-.3.182-.528.7-.347.862-.392.878-1.781.393-.513-.166-.528-.212-.574-1.014l-.045-.832L15-258.587A6.284,6.284,0,0,0,13.82-259a1.5,1.5,0,0,0-.664.545l-.453.545-.921-.5a2.651,2.651,0,0,1-.921-.681,5.155,5.155,0,0,1,.226-.832c.2-.56.211-.666.015-.772a11.6,11.6,0,0,1-1-.741l-.785-.62-.589.393a3.338,3.338,0,0,1-.694.393,5.906,5.906,0,0,1-.86-.666l-.724-.666.423-.757.408-.741-.709-.938a3.475,3.475,0,0,0-.906-.923,2.886,2.886,0,0,0-.74.227,6.384,6.384,0,0,1-.619.227,5.66,5.66,0,0,1-1.026-1.952,5.727,5.727,0,0,0,.619-.514c.558-.469.558-.575-.06-1.982l-.392-.893-.815.091-.83.091-.272-.938a2.4,2.4,0,0,1-.166-1.1,2.992,2.992,0,0,1,.74-.439l.619-.272-.106-.923c-.181-1.619-.211-1.664-1.1-1.8l-.785-.136.045-1.074.045-1.059.77-.227.785-.212.091-.847c.06-.484.136-1.029.166-1.241.06-.333-.015-.424-.694-.711-.423-.182-.724-.393-.694-.454a7.919,7.919,0,0,0,.317-1l.257-.862h.891c.589,0,.906-.061.906-.182a7.708,7.708,0,0,1,.392-1.15l.392-1-.619-.514-.619-.514.408-.7c.649-1.165.679-1.18,1.54-.908l.74.242.694-.953a9.866,9.866,0,0,0,.694-1.044,3.308,3.308,0,0,0-.408-.711L6.439-292l.755-.772.77-.757.574.393a2.719,2.719,0,0,0,.755.393,14.161,14.161,0,0,0,1.977-1.422,4.5,4.5,0,0,0-.241-.772l-.287-.741.906-.56.906-.545.574.605.558.62,1.162-.454,1.162-.439-.03-.862a3.62,3.62,0,0,1,.03-.953,7.447,7.447,0,0,1,1-.287l.921-.212.362.757.347.741.906-.091c1.721-.182,1.706-.166,1.826-.953a3.581,3.581,0,0,1,.166-.832,3.186,3.186,0,0,1,1.1-.106h1.026Z" transform="translate(0.007 300)" fill="#e6f2ee"/><path d="M13.331.227A17.233,17.233,0,0,0,.982,10.515,13.314,13.314,0,0,0,0,16.621a13.123,13.123,0,0,0,.323,4.028A16.747,16.747,0,0,0,31.532,24.2a15.985,15.985,0,0,0,1.754-7.088A15.729,15.729,0,0,0,31.56,9.238,16.955,16.955,0,0,0,19.856.185,26.051,26.051,0,0,0,13.331.227Zm7.087.94A15.947,15.947,0,0,1,32.219,13.8a15.693,15.693,0,0,1-1.207,9.572,16.685,16.685,0,0,1-8.35,8.028l-.351.14.028-.926.014-.926L23.743,29c.758-.379,1.389-.716,1.417-.73a15.341,15.341,0,0,0-.056-1.726l-.1-1.67-.758-.084a4.477,4.477,0,0,1-.842-.14,2.816,2.816,0,0,1,.168-.842,3.029,3.029,0,0,0,.126-1.319,5.873,5.873,0,0,0-1.333-2.5,1.81,1.81,0,0,1-.561-1.011,5.077,5.077,0,0,0-.435-1.095,1.782,1.782,0,0,1-.253-.7,1.063,1.063,0,0,0-.21-.547c-.337-.449-.253-.856.267-1.249l.477-.365.154.589a15.168,15.168,0,0,1,.21,2.049l.056,1.474.561.533a1.508,1.508,0,0,0,1.052.533h.463l.182-2.569a21.4,21.4,0,0,1,.435-3.4,9.654,9.654,0,0,0-.1-6.807,6.94,6.94,0,0,0-1.993-2.849,8.306,8.306,0,0,0-8.925-1.446c-.954.449-2.035,1.319-2.035,1.614,0,.084.182.154.407.154a2.385,2.385,0,0,1,1.516.926c.182.295.168.295-.94.225l-1.137-.07.1.618c.042.337.112.7.14.814a.868.868,0,0,1-.182.561c-.239.351-.295.786-.365,2.695a3.086,3.086,0,0,1-.561,1.8,8.908,8.908,0,0,0-.519.954,1.13,1.13,0,0,0,.281.295,5.377,5.377,0,0,1,.477,2.849c-.112.632.07.772,1.221,1.011.842.168.912.211,1.066.688.084.267.2.716.253.982l.084.477-1.165.575a4.952,4.952,0,0,0-2.512,2.063,1.526,1.526,0,0,0,.014,1.7c.154.309.281.575.281.589a5.1,5.1,0,0,1-.968.042H8.251l-.084.94c-.056.533-.1,1.277-.1,1.684v.716l1.473.87,1.473.856v.9c0,1.053.126,1.053-1.782.1A16.253,16.253,0,0,1,1.024,20a17.624,17.624,0,0,1,0-6.751,15.886,15.886,0,0,1,3.4-6.821,15.59,15.59,0,0,1,8.63-5.305A11.352,11.352,0,0,1,17.12.761,13,13,0,0,1,20.418,1.168ZM19.1,3.343A7.229,7.229,0,0,1,24.628,10.7a9.625,9.625,0,0,1-.617,3.453,12.3,12.3,0,0,0-.267,2.877,23.892,23.892,0,0,1-.154,2.583c-.042.028-.239-.042-.421-.168-.491-.309-.646-1.011-.491-2.105a5.858,5.858,0,0,0-.239-2.554c-.07-.253,0-.309.351-.379.421-.084.589-.407.295-.589-.253-.154-.14-.351.21-.351s.491-.323.21-.491a.26.26,0,0,1,.14-.491c.337,0,.365-.239.07-.561-.2-.225-.182-.267.154-.491l.379-.253-.309-.225-.309-.239.281-.267c.393-.337.365-.435-.084-.561l-.393-.1.323-.267c.337-.267.309-.547-.042-.547-.323,0-.393-.281-.126-.575.225-.239.225-.309.056-.407a.791.791,0,0,0-.379-.14c-.21,0-.239-.225-.042-.351.253-.154.14-.309-.281-.393-.379-.084-.407-.126-.281-.449.2-.505.2-.491-.281-.491-.393,0-.421-.028-.337-.365.1-.365.084-.379-.393-.281s-.491.084-.421-.351c.056-.351.014-.435-.126-.379-.73.281-.828.267-.828-.014,0-.365-.21-.477-.561-.295-.253.126-.281.112-.281-.211,0-.393-.295-.463-.561-.14-.253.295-.351.267-.547-.168L18.158,3.6l-.225.323-.225.323L17.429,3.9l-.267-.337L16.9,3.89l-.253.323-.182-.281c-.253-.407-.491-.365-.6.084l-.1.393-.253-.323c-.323-.393-.393-.393-.575.056-.126.351-.154.365-.393.14-.351-.323-.575-.281-.575.126s.014.407-.547.168c-.505-.211-.449-.295.407-.73A7.945,7.945,0,0,1,19.1,3.343Zm-.758,1.712a5.631,5.631,0,0,1,4.589,5.319c-.014,1.249-.182,1.432-.379.407a5.854,5.854,0,0,0-5.332-4.856,9.929,9.929,0,0,0-1.866.056c-.772.126-.786.126-.926-.253s-.126-.407.281-.477c.253-.042.73-.14,1.081-.2A6.024,6.024,0,0,1,18.341,5.055Zm-.253,1.6a5.33,5.33,0,0,1,3.873,5.867A3.944,3.944,0,0,1,20.5,14.866c-.786.477-.842.421-.73-.9.084-1.165.084-1.193-.309-1.586a2.436,2.436,0,0,1-.561-.87,11.762,11.762,0,0,0-3.55-4.463,1.24,1.24,0,0,1-.407-.337C14.945,6.4,16.994,6.375,18.088,6.655ZM14.131,7.1c1.782.786,5.024,4.94,4.14,5.277-.14.056-.281-.1-.463-.491a15.08,15.08,0,0,0-2.372-2.947,4.741,4.741,0,0,0-2.414-1.305c-.561-.084-.73-.295-.744-.9C12.279,6.487,13.093,6.641,14.131,7.1ZM12.447,8.438c.056.14.14.14.407.014a.888.888,0,0,1,.814.042,10.126,10.126,0,0,1,2.5,1.8c.323.365.253.519-.07.2-.084-.084-.2-.126-.253-.084-.126.14.225.6.66.856a1.646,1.646,0,0,1,.73,1.544c.014.351.084.505.2.463.253-.1.365.421.239,1.151l-.1.66-.154-.66c-.168-.73-.561-1.235-.954-1.235-.337,0-.323.1.07.449l.309.281-.351-.211c-.393-.225-.926-1.039-.772-1.193.056-.056.21.042.351.211.323.407.421.407.421-.028a.721.721,0,0,0-.365-.575c-.239-.168-.309-.281-.21-.379a.57.57,0,0,0,.154-.337c0-.14-.07-.154-.267-.042-.435.225-.716.168-.842-.182-.168-.421-.056-.547.281-.365.407.211.491.056.2-.379a.537.537,0,0,0-.646-.309c-.421.07-.421.07-.323-.491.084-.505.07-.547-.168-.449-.393.168-1.081.168-1.137-.014-.028-.084.07-.2.239-.239.309-.084.393-.379.1-.379a4.3,4.3,0,0,0-.842.2c-.66.2-.842.112-.688-.309A.253.253,0,0,1,12.447,8.438Zm1.01,1.754c.589.407.8.646.87.982a1.526,1.526,0,0,0,.351.688.782.782,0,0,1,.267.435c0,.6,1.151,2.007,1.642,2.007.168,0,.323.323.323.632a1.24,1.24,0,0,0,.337.561,1.166,1.166,0,0,1,.253,1.46,1.714,1.714,0,0,0,.463,1.951c.407.435.491.477.491.239s.014-.253.225.042a1.62,1.62,0,0,0,1.4.674.351.351,0,0,1,.477.182c.225.421.182.477-.351.379-.66-.126-.631.1.084.505.561.323,1.375,1.333.926,1.151-.253-.1-.435.337-.295.73a2.711,2.711,0,0,0,.449.646c.351.379.449,1.011.2,1.263s-.674-.014-.954-.618c-.295-.632-.716-.94-.575-.407.042.154.014.295-.056.295-.281,0-.337-.94-.07-1.544.112-.253-.814-1.4-1.123-1.4-.281,0-.253.112.21.561.379.393.393.463.337,1.319a1.928,1.928,0,0,0,.14,1.263c.21.309.21.351.014.421-.716.281-1.081-.1-.688-.7.126-.2.2-.407.14-.449-.1-.1-.716.547-.982,1.011-.1.182-.281.239-.631.2l-.491-.042.954-.982c1.249-1.277,1.263-1.305.926-2.007-.337-.66-1.179-1.39-1.333-1.137-.056.1.014.225.14.295a1.569,1.569,0,0,1,.449.575l.21.449-.491-.519a1.352,1.352,0,0,1-.505-1.249c0-.589-.042-.73-.267-.786-.323-.084-.449-.632-.281-1.221a8.147,8.147,0,0,0,.126-1.6c0-.884-.042-1.179-.21-1.235a.559.559,0,0,1-.281-.351c-.14-.421-.351-.168-.351.421,0,1.039-1.333,1.839-3.073,1.839-1.235,0-1.445-.154-1.473-1.095l-.014-.73h.463c.589,0,.533-.295-.084-.449-.365-.1-.449-.2-.449-.491a1.145,1.145,0,0,0-.267-.66c-.281-.295-.281-.295.2-1.067a3.158,3.158,0,0,0,.491-1.123c.014-.323.042-.309.295.168.295.589.772.786,1.235.533.337-.168.379-.421.126-.7-.154-.168-.14-.168.07-.014.379.295.463.056.14-.379a1.432,1.432,0,0,0-1.4-.66c-.421.07-.463.042-.463-.253a.7.7,0,0,1,.1-.421C12.04,9.533,12.742,9.715,13.457,10.192Zm2.891,9.614a4.539,4.539,0,0,1,.281,1.011c0,.449-1.277,1.558-2.189,1.909-1.151.435-2.3.239-2.3-.379a3.118,3.118,0,0,1,.646-.884c.477-.505.7-.66.828-.561.084.07.21.1.253.042a5.258,5.258,0,0,0-.112-2.428,6.174,6.174,0,0,1-.21-.688,1.875,1.875,0,0,1,.744-.337A6.564,6.564,0,0,0,15.436,17l.421-.267.1,1.165A9.11,9.11,0,0,0,16.348,19.807ZM11.8,21.477c-.491.575-.6,1.067-.351,1.516.309.561.912.786,2.021.772a4.844,4.844,0,0,0,3.368-1.474c.281-.309.561-.533.6-.477s-.07.407-.295.786c-.379.7-.477,1.053-.253.9.295-.168.267.182-.028.463-.8.744-3.27,1.011-4.841.533-.9-.281-1.712-.954-1.712-1.432a3.048,3.048,0,0,1,1.473-1.853C12.194,20.972,12.194,21,11.8,21.477Zm12.545,4.969v.912H17.162c-3.957,0-7.437.042-7.718.084l-.533.1V25.533H24.347Zm-1.4,2.035-.912.407H11.086l-.772-.407-.772-.421H16.7l7.157.014Zm-1.4,2.147c0,.87-.154,1.221-.519,1.221-.112,0-.182-.182-.182-.505,0-.632-.21-1.039-.547-1.039-.407,0-.561.295-.6,1.123-.028.6-.1.786-.281.814-.21.042-.253-.056-.253-.674,0-.9-.182-1.263-.631-1.263-.533,0-.814.547-.744,1.474.028.646,0,.772-.2.772s-.225-.14-.225-.9c.028-1.039-.154-1.347-.744-1.347-.519,0-.688.337-.688,1.389,0,.674-.042.856-.21.856s-.21-.2-.21-.9c0-1-.2-1.347-.772-1.347-.407,0-.491.225-.491,1.249,0,.772-.014.814-.323.758-.267-.056-.309-.14-.267-.519.084-.744-.154-1.418-.519-1.46-.477-.07-.631.154-.6.94l.014.7-.379-.14c-.365-.126-.379-.168-.379-1.109v-.982H21.54Z" transform="translate(6 6)" fill="#e6f2ee"/></g></g></svg>