<svg xmlns="http://www.w3.org/2000/svg" width="18" height="24" viewBox="0 0 18 24">
  <path id="FontAwsome_file-image_" data-name="FontAwsome (file-image)" d="M18,5.716V6H12V0h.284a1.125,1.125,0,0,1,.8.329L17.67,4.92A1.125,1.125,0,0,1,18,5.716ZM11.625,7.5A1.128,1.128,0,0,1,10.5,6.375V0H1.125A1.125,1.125,0,0,0,0,1.125v21.75A1.125,1.125,0,0,0,1.125,24h15.75A1.125,1.125,0,0,0,18,22.875V7.5Zm-6.349.75a2.25,2.25,0,1,1-2.25,2.25A2.25,2.25,0,0,1,5.276,8.25Zm9.75,11.25h-12l.023-2.273L4.9,15.375a.536.536,0,0,1,.773.023L7.526,17.25,12.378,12.4a.563.563,0,0,1,.8,0l1.852,1.852V19.5Z" fill="#f1efef"/>
</svg>
