<svg xmlns="http://www.w3.org/2000/svg" width="20.118" height="20.118" viewBox="0 0 20.118 20.118">
  <path id="FontAwsome_whatsapp-square_" data-name="FontAwsome (whatsapp-square)" d="M10.059,36.077a5.918,5.918,0,0,0-5.016,9.066l.139.225-.6,2.182,2.241-.588.216.13a5.9,5.9,0,0,0,3.013.826h0a5.873,5.873,0,0,0,4.185-10.1,5.873,5.873,0,0,0-4.185-1.738Zm3.48,8.46a1.815,1.815,0,0,1-1.2.844,3.471,3.471,0,0,1-2.133-.445,7.994,7.994,0,0,1-3.04-2.685,3.448,3.448,0,0,1-.727-1.841,1.993,1.993,0,0,1,.624-1.486A.648.648,0,0,1,7.54,38.7c.117,0,.238,0,.341,0s.256-.04.4.305.5,1.23.548,1.32a.314.314,0,0,1,.013.31c-.341.683-.705.656-.521.97a4.848,4.848,0,0,0,2.42,2.115c.18.09.283.076.386-.045s.445-.521.561-.7.238-.148.4-.09,1.037.489,1.217.579.3.135.341.207A1.58,1.58,0,0,1,13.539,44.538ZM17.962,32H2.155A2.156,2.156,0,0,0,0,34.155V49.962a2.156,2.156,0,0,0,2.155,2.155H17.962a2.156,2.156,0,0,0,2.155-2.155V34.155A2.156,2.156,0,0,0,17.962,32ZM10.054,49.118a7.115,7.115,0,0,1-3.4-.867l-3.777.992,1.01-3.691A7.134,7.134,0,1,1,17.244,42a7.187,7.187,0,0,1-7.189,7.118Z" transform="translate(0 -32)" fill="#ddefe4"/>
</svg>
