<svg xmlns="http://www.w3.org/2000/svg" xmlns:xlink="http://www.w3.org/1999/xlink" width="296.458" height="164.239" viewBox="0 0 296.458 164.239">
  <defs>
    <filter id="Ret창ngulo_7" x="0" y="0" width="296.458" height="164.239" filterUnits="userSpaceOnUse">
      <feOffset dy="3" input="SourceAlpha"/>
      <feGaussianBlur stdDeviation="3" result="blur"/>
      <feFlood flood-opacity="0.161"/>
      <feComposite operator="in" in2="blur"/>
      <feComposite in="SourceGraphic"/>
    </filter>
  </defs>
  <g id="Grupo_22" data-name="Grupo 22" transform="translate(-39.542 -635.778)">
    <g transform="matrix(1, 0, 0, 1, 39.54, 635.78)" filter="url(#Ret창ngulo_7)">
      <rect id="Ret창ngulo_7-2" data-name="Ret창ngulo 7" width="270.208" height="127.701" rx="7" transform="matrix(1, 0.07, -0.07, 1, 17.91, 6)"/>
    </g>
    <g id="imgCasa3_2_" data-name="imgCasa3 (2)" transform="matrix(-0.07, 0.998, -0.998, -0.07, 298.47, 677.284)">
      <path id="Caminho_3" data-name="Caminho 3" d="M.256.192C.11.3,0,6.23,0,13.365V26.282H81.233l-.073-13.1L81.05.119,40.763.009C18.625-.027.366.046.256.192ZM70.621.668c0,.256-11.892.366-34.945.366H.732V25.55h79.4V1.034H75.561c-2.818,0-4.574-.146-4.574-.366S72.89.3,75.927.3h4.94V25.916H.366V.3H35.494C58.656.3,70.621.412,70.621.668Zm.366,2.2V4.327H1.1V1.4h69.89Zm4.757,10.977h4.025V25.184H1.1V4.693H70.951l.146,4.1c.11,3.988.11,3.952.256-1.72L71.5,1.217l.11,6.294.11,6.33Zm4.025-6.769v5.672H72.085V1.4h7.684Z" transform="translate(0)" fill="#e6f2ee"/>
      <path id="Caminho_4" data-name="Caminho 4" d="M0,59.022v59.059l5.672.256c3.11.146,7.794.146,10.429,0l4.757-.256v5.6h4.757c4.5,0,4.757-.037,4.757-.732,0-.732.256-.732,23.236-.732H76.842V0H0Zm76.476,2.086V121.85H53.424c-22.8,0-23.053,0-23.053-.732s.256-.732,22.87-.732H76.11l-.073-59.717L75.927.915H.915v16.1l27.553.11,27.517.073v97.7l-12.88-.073-12.917-.11,12.734-.073,12.7-.11V17.564H28.578c-14.893,0-27.3-.11-27.627-.22-.512-.183-.585-1.317-.585-8.6V.366h76.11Zm-11.709-.549V120.02h-34.4v-4.757h25.98V16.832H1.1V1.1H64.767Zm10.977,0V120.02H65.133V1.1H75.744Zm-64.767,56.9H21.223v-4.391H30v10.246H21.223v-5.489H.366l.073-50.24.11-50.2L.622,67.4l.11,50.057ZM5.123,67.511v49.581H1.1V17.93H5.123Zm50.13-25.248V66.6H30.371V37.689H5.489V17.93H55.253ZM30.078,52.4l.11,14.38,12.624.183,12.624.183-12.7.11L30,67.328V82.7l12.734.073c11.2.073,11.819.11,5.379.293l-7.318.183V98.614l7.318.183c6.44.183,5.818.22-5.379.293L30,99.163l-.11,6.843c-.037,3.806-.11-6.33-.183-22.5l-.073-29.346H21.955V83.429c0,19.284-.11,29.273-.366,29.273-.22,0-.366-2.854-.366-7.867V96.967l-7.94-.073-7.977-.11,7.977-.073,7.94-.11V85.99l-7.94-.073-7.977-.11,7.977-.073,7.94-.11V70.256l-7.94-.073-7.977-.11L13.283,70l7.94-.11V54.155l-7.94-.073-7.977-.11,6.879-.073,6.843-.11V38.421l-6.843-.11c-4.171-.037-2.013-.11,5.452-.183L30,38.055ZM18.662,46.105v7.318H5.489V38.787H18.662Zm2.2,15.917v7.5H5.489v-15H20.857Zm8.416,21.589V112.7H22.321V54.521h6.952Zm25.98-8.6v7.318H30.371V67.694H55.253Zm-34.4,2.927v7.318H5.489V70.622H20.857Zm34.4,12.99v7.5H40.982v-15H55.253Zm-34.4.366v4.94H5.489v-9.88H20.857Zm0,15.917v9.88H5.489V97.333H20.857Zm34.4-.366v7.318H30.371V99.529H55.253Z" transform="translate(0 94.708)" fill="#e6f2ee"/>
      <path id="Caminho_5" data-name="Caminho 5" d="M0,4.574V9.148H7.684V0H0Zm7.318,0V8.782H.366V.366H7.318Z" transform="translate(21.955 208.507)" fill="#e6f2ee"/>
      <path id="Caminho_6" data-name="Caminho 6" d="M0,7.684v7.684H10.246V0H0Zm9.88,0V15H.366V.366H9.88Z" transform="translate(19.393 133.129)" fill="#e6f2ee"/>
      <path id="Caminho_7" data-name="Caminho 7" d="M.088.476C.014.732-.022,4.208.014,8.233l.11,7.318,5.05.11,5.013.11V0H5.247C1.551,0,.234.11.088.476ZM9.821,7.867v7.5H.307v-15H9.821Z" transform="translate(30.064 177.771)" fill="#e6f2ee"/>
    </g>
  </g>
</svg>
